{
  "accessors": [
    {
      "bufferView": 2,
      "componentType": 5126,
      "count": 18269,
      "max": [
        0.98416590690612793,
        0.49306637048721313,
        1.5648022890090942
      ],
      "min": [
        -0.98417007923126221,
        -1.1601666212081909,
        -2.016197681427002
      ],
      "type": "VEC3"
    },
    {
      "bufferView": 2,
      "byteOffset": 219228,
      "componentType": 5126,
      "count": 18269,
      "max": [
        0.99998170137405396,
        0.99996757507324219,
        0.99977517127990723
      ],
      "min": [
        -0.99998188018798828,
        -0.99998766183853149,
        -0.99999880790710449
      ],
      "type": "VEC3"
    },
    {
      "bufferView": 3,
      "componentType": 5126,
      "count": 18269,
      "max": [
        0.99986648559570312,
        0.9996722936630249,
        0.90631204843521118,
        1
      ],
      "min": [
        -0.99974203109741211,
        -0.9998476505279541,
        -0.98268640041351318,
        1
      ],
      "type": "VEC4"
    },
    {
      "bufferView": 1,
      "componentType": 5126,
      "count": 18269,
      "max": [
        0.99950999021530151,
        0.87450999021530151
      ],
      "min": [
        0.00047999998787418008,
        0.00047999998787418008
      ],
      "type": "VEC2"
    },
    {
      "bufferView": 0,
      "componentType": 5125,
      "count": 107832,
      "max": [
        18268
      ],
      "min": [
        0
      ],
      "type": "SCALAR"
    },
    {
      "bufferView": 2,
      "byteOffset": 438456,
      "componentType": 5126,
      "count": 8328,
      "max": [
        -0.13013416528701782,
        -0.31917420029640198,
        1.679624080657959
      ],
      "min": [
        -0.65100467205047607,
        -0.97982668876647949,
        1.1942800283432007
      ],
      "type": "VEC3"
    },
    {
      "bufferView": 2,
      "byteOffset": 538392,
      "componentType": 5126,
      "count": 8328,
      "max": [
        0.99921119213104248,
        0.99985957145690918,
        0.99834239482879639
      ],
      "min": [
        -0.99991703033447266,
        -0.99874091148376465,
        -0.99997043609619141
      ],
      "type": "VEC3"
    },
    {
      "bufferView": 3,
      "byteOffset": 292304,
      "componentType": 5126,
      "count": 8328,
      "max": [
        0.99615597724914551,
        0.99891924858093262,
        0.99910432100296021,
        1
      ],
      "min": [
        -0.99997317790985107,
        -0.99901831150054932,
        -0.99979078769683838,
        1
      ],
      "type": "VEC4"
    },
    {
      "bufferView": 1,
      "byteOffset": 146152,
      "componentType": 5126,
      "count": 8328,
      "max": [
        0.99901998043060303,
        0.90043002367019653
      ],
      "min": [
        0.00096999999368563294,
        0.00096999999368563294
      ],
      "type": "VEC2"
    },
    {
      "bufferView": 0,
      "byteOffset": 431328,
      "componentType": 5125,
      "count": 47460,
      "max": [
        8327
      ],
      "min": [
        0
      ],
      "type": "SCALAR"
    },
    {
      "bufferView": 2,
      "byteOffset": 638328,
      "componentType": 5126,
      "count": 3963,
      "max": [
        -0.24197359383106232,
        -0.518382728099823,
        1.4978861808776855
      ],
      "min": [
        -0.45253035426139832,
        -0.7510492205619812,
        1.2975157499313354
      ],
      "type": "VEC3"
    },
    {
      "bufferView": 2,
      "byteOffset": 685884,
      "componentType": 5126,
      "count": 3963,
      "max": [
        0.99972540140151978,
        0.99949729442596436,
        0.99913632869720459
      ],
      "min": [
        -0.99469709396362305,
        -0.99978411197662354,
        -0.98927593231201172
      ],
      "type": "VEC3"
    },
    {
      "bufferView": 3,
      "byteOffset": 425552,
      "componentType": 5126,
      "count": 3963,
      "max": [
        0.98801302909851074,
        0.99900960922241211,
        0.98810482025146484,
        1
      ],
      "min": [
        -0.9965132474899292,
        -0.56285756826400757,
        -0.99984699487686157,
        1
      ],
      "type": "VEC4"
    },
    {
      "bufferView": 1,
      "byteOffset": 212776,
      "componentType": 5126,
      "count": 3963,
      "max": [
        0.88921999931335449,
        0.99901998043060303
      ],
      "min": [
        0.00096999999368563294,
        0.00096999999368563294
      ],
      "type": "VEC2"
    },
    {
      "bufferView": 0,
      "byteOffset": 621168,
      "componentType": 5125,
      "count": 23340,
      "max": [
        3962
      ],
      "min": [
        0
      ],
      "type": "SCALAR"
    },
    {
      "bufferView": 2,
      "byteOffset": 733440,
      "componentType": 5126,
      "count": 781,
      "max": [
        0.32830101251602173,
        -0.74554264545440674,
        1.2597274780273438
      ],
      "min": [
        -0.32830101251602173,
        -1.1249160766601562,
        0.78980296850204468
      ],
      "type": "VEC3"
    },
    {
      "bufferView": 2,
      "byteOffset": 742812,
      "componentType": 5126,
      "count": 781,
      "max": [
        0.99787968397140503,
        0.99963772296905518,
        0.99359530210494995
      ],
      "min": [
        -0.9978797435760498,
        -0.99997031688690186,
        -0.99477255344390869
      ],
      "type": "VEC3"
    },
    {
      "bufferView": 3,
      "byteOffset": 488960,
      "componentType": 5126,
      "count": 781,
      "max": [
        1,
        0.99219590425491333,
        0.99828416109085083,
        1
      ],
      "min": [
        -0.3286336362361908,
        -0.99219882488250732,
        -0.99828177690505981,
        1
      ],
      "type": "VEC4"
    },
    {
      "bufferView": 1,
      "byteOffset": 244480,
      "componentType": 5126,
      "count": 781,
      "max": [
        0.79443997144699097,
        0.99901998043060303
      ],
      "min": [
        0.00096999999368563294,
        0.00096999999368563294
      ],
      "type": "VEC2"
    },
    {
      "bufferView": 0,
      "byteOffset": 714528,
      "componentType": 5125,
      "count": 4524,
      "max": [
        780
      ],
      "min": [
        0
      ],
      "type": "SCALAR"
    },
    {
      "bufferView": 2,
      "byteOffset": 752184,
      "componentType": 5126,
      "count": 28,
      "max": [
        0.10259100049734116,
        1.0475610494613647,
        0.87129902839660645
      ],
      "min": [
        -0.11064799875020981,
        1.011288046836853,
        0.74792701005935669
      ],
      "type": "VEC3"
    },
    {
      "bufferView": 2,
      "byteOffset": 752520,
      "componentType": 5126,
      "count": 28,
      "max": [
        0.9976506233215332,
        0.99918478727340698,
        0.22525496780872345
      ],
      "min": [
        -0.99467790126800537,
        -0.99921548366546631,
        -0.96654725074768066
      ],
      "type": "VEC3"
    },
    {
      "bufferView": 1,
      "byteOffset": 250728,
      "componentType": 5126,
      "count": 28,
      "max": [
        0.99999898672103882,
        0.88141697645187378
      ],
      "min": [
        0,
        0
      ],
      "type": "VEC2"
    },
    {
      "bufferView": 1,
      "byteOffset": 250952,
      "componentType": 5126,
      "count": 28,
      "max": [
        0.99999898672103882,
        0.88141697645187378
      ],
      "min": [
        0,
        0
      ],
      "type": "VEC2"
    },
    {
      "bufferView": 0,
      "byteOffset": 732624,
      "componentType": 5125,
      "count": 54,
      "max": [
        27
      ],
      "min": [
        0
      ],
      "type": "SCALAR"
    },
    {
      "bufferView": 2,
      "byteOffset": 752856,
      "componentType": 5126,
      "count": 273,
      "max": [
        0.9393879771232605,
        1.051967978477478,
        1.4143819808959961
      ],
      "min": [
        -0.9447370171546936,
        0.30808201432228088,
        -0.66851997375488281
      ],
      "type": "VEC3"
    },
    {
      "bufferView": 2,
      "byteOffset": 756132,
      "componentType": 5126,
      "count": 273,
      "max": [
        1,
        1,
        1
      ],
      "min": [
        -1,
        -1,
        -1
      ],
      "type": "VEC3"
    },
    {
      "bufferView": 3,
      "byteOffset": 501456,
      "componentType": 5126,
      "count": 273,
      "max": [
        0.99995940923690796,
        0.99902790784835815,
        0.99998265504837036,
        1
      ],
      "min": [
        -0.99937880039215088,
        -0.99961507320404053,
        -0.99955064058303833,
        -1
      ],
      "type": "VEC4"
    },
    {
      "bufferView": 1,
      "byteOffset": 251176,
      "componentType": 5126,
      "count": 273,
      "max": [
        0.99999898672103882,
        0.72379302978515625
      ],
      "min": [
        0,
        0
      ],
      "type": "VEC2"
    },
    {
      "bufferView": 0,
      "byteOffset": 732840,
      "componentType": 5125,
      "count": 942,
      "max": [
        272
      ],
      "min": [
        0
      ],
      "type": "SCALAR"
    }
  ],
  "asset": {
    "extras": {
      "author": "Freddy Drabble (https://sketchfab.com/FredDrabble)",
      "license": "CC-BY-4.0 (http://creativecommons.org/licenses/by/4.0/)",
      "source": "https://sketchfab.com/3d-models/imposter-among-us-38676e91118a4ac8bf897f170c7eafa5",
      "title": "IMPOSTER AMONG US"
    },
    "generator": "Sketchfab-9.52.0",
    "version": "2.0"
  },
  "bufferViews": [
    {
      "buffer": 0,
      "byteLength": 736608,
      "byteOffset": 0,
      "name": "floatBufferViews",
      "target": 34963
    },
    {
      "buffer": 0,
      "byteLength": 253360,
      "byteOffset": 736608,
      "byteStride": 8,
      "name": "floatBufferViews",
      "target": 34962
    },
    {
      "buffer": 0,
      "byteLength": 759408,
      "byteOffset": 989968,
      "byteStride": 12,
      "name": "floatBufferViews",
      "target": 34962
    },
    {
      "buffer": 0,
      "byteLength": 505824,
      "byteOffset": 1749376,
      "byteStride": 16,
      "name": "floatBufferViews",
      "target": 34962
    }
  ],
  "buffers": [
    {
      "byteLength": 2255200,
      "uri": "scene.bin"
    }
  ],
  "images": [
    {
      "uri": "textures/05_-_Default_baseColor.png"
    },
    {
      "uri": "textures/05_-_Default_metallicRoughness.png"
    },
    {
      "uri": "textures/05_-_Default_normal.png"
    },
    {
      "uri": "textures/Wall_Paint_baseColor.png"
    },
    {
      "uri": "textures/Wall_Paint_metallicRoughness.png"
    },
    {
      "uri": "textures/Wall_Paint_normal.png"
    },
    {
      "uri": "textures/Ceramic_baseColor.png"
    },
    {
      "uri": "textures/Ceramic_metallicRoughness.png"
    },
    {
      "uri": "textures/Ceramic_normal.png"
    },
    {
      "uri": "textures/20_-_Polished_Aluminum_baseColor.png"
    },
    {
      "uri": "textures/20_-_Polished_Aluminum_metallicRoughness.png"
    },
    {
      "uri": "textures/20_-_Polished_Aluminum_normal.png"
    },
    {
      "uri": "textures/Metal_baseColor.png"
    },
    {
      "uri": "textures/Metal_metallicRoughness.png"
    },
    {
      "uri": "textures/Metal_normal.png"
    }
  ],
  "materials": [
    {
      "doubleSided": true,
      "name": "05_-_Default",
      "normalTexture": {
        "index": 2,
        "scale": 1,
        "texCoord": 0
      },
      "occlusionTexture": {
        "index": 1,
        "strength": 1,
        "texCoord": 0
      },
      "pbrMetallicRoughness": {
        "baseColorFactor": [
          1,
          1,
          1,
          1
        ],
        "baseColorTexture": {
          "index": 0,
          "texCoord": 0
        },
        "metallicFactor": 1,
        "metallicRoughnessTexture": {
          "index": 1,
          "texCoord": 0
        },
        "roughnessFactor": 1
      }
    },
    {
      "doubleSided": true,
      "name": "Wall_Paint",
      "normalTexture": {
        "index": 5,
        "scale": 1,
        "texCoord": 0
      },
      "occlusionTexture": {
        "index": 4,
        "strength": 1,
        "texCoord": 0
      },
      "pbrMetallicRoughness": {
        "baseColorFactor": [
          1,
          1,
          1,
          1
        ],
        "baseColorTexture": {
          "index": 3,
          "texCoord": 0
        },
        "metallicFactor": 0,
        "metallicRoughnessTexture": {
          "index": 4,
          "texCoord": 0
        },
        "roughnessFactor": 1
      }
    },
    {
      "doubleSided": true,
      "name": "Ceramic",
      "normalTexture": {
        "index": 8,
        "scale": 1,
        "texCoord": 0
      },
      "occlusionTexture": {
        "index": 7,
        "strength": 1,
        "texCoord": 0
      },
      "pbrMetallicRoughness": {
        "baseColorFactor": [
          1,
          1,
          1,
          1
        ],
        "baseColorTexture": {
          "index": 6,
          "texCoord": 0
        },
        "metallicFactor": 0,
        "metallicRoughnessTexture": {
          "index": 7,
          "texCoord": 0
        },
        "roughnessFactor": 1
      }
    },
    {
      "doubleSided": true,
      "name": "20_-_Polished_Aluminum",
      "normalTexture": {
        "index": 11,
        "scale": 1,
        "texCoord": 0
      },
      "pbrMetallicRoughness": {
        "baseColorFactor": [
          1,
          1,
          1,
          1
        ],
        "baseColorTexture": {
          "index": 9,
          "texCoord": 0
        },
        "metallicFactor": 1,
        "metallicRoughnessTexture": {
          "index": 10,
          "texCoord": 0
        },
        "roughnessFactor": 0.7738920404453119
      }
    },
    {
      "doubleSided": true,
      "name": "11_-_Default",
      "pbrMetallicRoughness": {
        "baseColorFactor": [
          1,
          1,
          1,
          1
        ],
        "metallicFactor": 1,
        "roughnessFactor": 0
      }
    },
    {
      "doubleSided": true,
      "name": "Metal",
      "normalTexture": {
        "index": 14,
        "scale": 1,
        "texCoord": 0
      },
      "occlusionTexture": {
        "index": 13,
        "strength": 1,
        "texCoord": 0
      },
      "pbrMetallicRoughness": {
        "baseColorFactor": [
          1,
          1,
          1,
          1
        ],
        "baseColorTexture": {
          "index": 12,
          "texCoord": 0
        },
        "metallicFactor": 1,
        "metallicRoughnessTexture": {
          "index": 13,
          "texCoord": 0
        },
        "roughnessFactor": 1
      }
    }
  ],
  "meshes": [
    {
      "name": "bodyLP_05 - Default_0",
      "primitives": [
        {
          "attributes": {
            "NORMAL": 1,
            "POSITION": 0,
            "TANGENT": 2,
            "TEXCOORD_0": 3
          },
          "indices": 4,
          "material": 0,
          "mode": 4
        }
      ]
    },
    {
      "name": "flowerLP_Wall Paint_0",
      "primitives": [
        {
          "attributes": {
            "NORMAL": 6,
            "POSITION": 5,
            "TANGENT": 7,
            "TEXCOORD_0": 8
          },
          "indices": 9,
          "material": 1,
          "mode": 4
        }
      ]
    },
    {
      "name": "flowermiddlelp_Ceramic_0",
      "primitives": [
        {
          "attributes": {
            "NORMAL": 11,
            "POSITION": 10,
            "TANGENT": 12,
            "TEXCOORD_0": 13
          },
          "indices": 14,
          "material": 2,
          "mode": 4
        }
      ]
    },
    {
      "name": "goggles_20 - Polished Aluminum_0",
      "primitives": [
        {
          "attributes": {
            "NORMAL": 16,
            "POSITION": 15,
            "TANGENT": 17,
            "TEXCOORD_0": 18
          },
          "indices": 19,
          "material": 3,
          "mode": 4
        }
      ]
    },
    {
      "name": "amongusbackpack_11 - Default_0",
      "primitives": [
        {
          "attributes": {
            "NORMAL": 21,
            "POSITION": 20,
            "TEXCOORD_0": 22,
            "TEXCOORD_1": 23
          },
          "indices": 24,
          "material": 4,
          "mode": 4
        }
      ]
    },
    {
      "name": "amongusbackpack_Metal_0",
      "primitives": [
        {
          "attributes": {
            "NORMAL": 26,
            "POSITION": 25,
            "TANGENT": 27,
            "TEXCOORD_0": 28
          },
          "indices": 29,
          "material": 5,
          "mode": 4
        }
      ]
    }
  ],
  "nodes": [
    {
      "children": [
        1
      ],
      "name": "RootNode (gltf orientation matrix)",
      "rotation": [
        -0.70710678118654746,
        -0,
        -0,
        0.70710678118654757
      ]
    },
    {
      "children": [
        2
      ],
      "name": "RootNode (model correction matrix)"
    },
    {
      "children": [
        3
      ],
      "matrix": [
        1,
        0,
        0,
        0,
        0,
        0,
        1,
        0,
        0,
        -1,
        0,
        0,
        0,
        0,
        0,
        1
      ],
      "name": "1131040bdf034986a3a0e66ad0d50dde.fbx"
    },
    {
      "children": [
        4,
        6,
        8,
        10,
        12
      ],
      "name": "RootNode"
    },
    {
      "children": [
        5
      ],
      "matrix": [
        1,
        0,
        0,
        0,
        0,
        2.2204460492503131e-16,
        -1,
        0,
        0,
        1,
        2.2204460492503131e-16,
        0,
        0,
        0,
        0,
        1
      ],
      "name": "bodyLP"
    },
    {
      "mesh": 0,
      "name": "bodyLP_05 - Default_0"
    },
    {
      "children": [
        7
      ],
      "matrix": [
        1,
        0,
        0,
        0,
        0,
        2.2204460492503131e-16,
        -1,
        0,
        0,
        1,
        2.2204460492503131e-16,
        0,
        0,
        0,
        0,
        1
      ],
      "name": "flowerLP"
    },
    {
      "mesh": 1,
      "name": "flowerLP_Wall Paint_0"
    },
    {
      "children": [
        9
      ],
      "matrix": [
        1,
        0,
        0,
        0,
        0,
        2.2204460492503131e-16,
        -1,
        0,
        0,
        1,
        2.2204460492503131e-16,
        0,
        0,
        0,
        0,
        1
      ],
      "name": "flowermiddlelp"
    },
    {
      "mesh": 2,
      "name": "flowermiddlelp_Ceramic_0"
    },
    {
      "children": [
        11
      ],
      "matrix": [
        1,
        0,
        0,
        0,
        0,
        2.2204460492503131e-16,
        -1,
        0,
        0,
        1,
        2.2204460492503131e-16,
        0,
        0,
        0,
        0,
        1
      ],
      "name": "goggles"
    },
    {
      "mesh": 3,
      "name": "goggles_20 - Polished Aluminum_0"
    },
    {
      "children": [
        13,
        14
      ],
      "matrix": [
        1,
        0,
        0,
        0,
        0,
        2.2204460492503131e-16,
        -1,
        0,
        0,
        1,
        2.2204460492503131e-16,
        0,
        0,
        0,
        0,
        1
      ],
      "name": "amongusbackpack"
    },
    {
      "mesh": 4,
      "name": "amongusbackpack_11 - Default_0"
    },
    {
      "mesh": 5,
      "name": "amongusbackpack_Metal_0"
    }
  ],
  "samplers": [
    {
      "magFilter": 9729,
      "minFilter": 9987,
      "wrapS": 10497,
      "wrapT": 10497
    }
  ],
  "scene": 0,
  "scenes": [
    {
      "name": "OSG_Scene",
      "nodes": [
        0
      ]
    }
  ],
  "textures": [
    {
      "sampler": 0,
      "source": 0
    },
    {
      "sampler": 0,
      "source": 1
    },
    {
      "sampler": 0,
      "source": 2
    },
    {
      "sampler": 0,
      "source": 3
    },
    {
      "sampler": 0,
      "source": 4
    },
    {
      "sampler": 0,
      "source": 5
    },
    {
      "sampler": 0,
      "source": 6
    },
    {
      "sampler": 0,
      "source": 7
    },
    {
      "sampler": 0,
      "source": 8
    },
    {
      "sampler": 0,
      "source": 9
    },
    {
      "sampler": 0,
      "source": 10
    },
    {
      "sampler": 0,
      "source": 11
    },
    {
      "sampler": 0,
      "source": 12
    },
    {
      "sampler": 0,
      "source": 13
    },
    {
      "sampler": 0,
      "source": 14
    }
  ]
}

