{
  "accessors": [
    {
      "bufferView": 2,
      "componentType": 5126,
      "count": 312,
      "max": [
        2.0391364097595215,
        1.6020476818084717,
        1.0696085691452026
      ],
      "min": [
        -2.4758901596069336,
        -2.8972923755645752,
        -1.8835064172744751
      ],
      "type": "VEC3"
    },
    {
      "bufferView": 2,
      "byteOffset": 3744,
      "componentType": 5126,
      "count": 312,
      "max": [
        0.99406039714813232,
        0.99925804138183594,
        1
      ],
      "min": [
        -0.99464011192321777,
        -0.98941904306411743,
        -1
      ],
      "type": "VEC3"
    },
    {
      "bufferView": 1,
      "componentType": 5126,
      "count": 312,
      "max": [
        0.875,
        1
      ],
      "min": [
        0.125,
        0
      ],
      "type": "VEC2"
    },
    {
      "bufferView": 0,
      "componentType": 5125,
      "count": 564,
      "max": [
        310
      ],
      "min": [
        0
      ],
      "type": "SCALAR"
    }
  ],
  "asset": {
    "extras": {
      "author": "disrespect (https://sketchfab.com/disrespect)",
      "license": "CC-BY-4.0 (http://creativecommons.org/licenses/by/4.0/)",
      "source": "https://sketchfab.com/3d-models/among-us-storage-box-blend-e180a6fb05b3497994328d523da72e46",
      "title": "Among Us Storage Box (Blend)"
    },
    "generator": "Sketchfab-9.66.0",
    "version": "2.0"
  },
  "bufferViews": [
    {
      "buffer": 0,
      "byteLength": 2256,
      "byteOffset": 0,
      "name": "floatBufferViews",
      "target": 34963
    },
    {
      "buffer": 0,
      "byteLength": 2496,
      "byteOffset": 2256,
      "byteStride": 8,
      "name": "floatBufferViews",
      "target": 34962
    },
    {
      "buffer": 0,
      "byteLength": 7488,
      "byteOffset": 4752,
      "byteStride": 12,
      "name": "floatBufferViews",
      "target": 34962
    }
  ],
  "buffers": [
    {
      "byteLength": 12240,
      "uri": "scene.bin"
    }
  ],
  "materials": [
    {
      "doubleSided": true,
      "emissiveFactor": [
        0,
        0,
        0
      ],
      "name": "material",
      "pbrMetallicRoughness": {
        "baseColorFactor": [
          0.37260599999999999,
          0.56200000000000006,
          0.45985300000000001,
          1
        ],
        "metallicFactor": 1,
        "roughnessFactor": 0.552786
      }
    }
  ],
  "meshes": [
    {
      "primitives": [
        {
          "attributes": {
            "NORMAL": 1,
            "POSITION": 0,
            "TEXCOORD_0": 2
          },
          "indices": 3,
          "material": 0,
          "mode": 4
        }
      ]
    }
  ],
  "nodes": [
    {
      "children": [
        1
      ],
      "name": "RootNode (gltf orientation matrix)",
      "rotation": [
        -0.70710678118654746,
        -0,
        -0,
        0.70710678118654757
      ]
    },
    {
      "children": [
        2
      ],
      "name": "RootNode (model correction matrix)"
    },
    {
      "children": [
        3
      ],
      "name": "root"
    },
    {
      "children": [
        4
      ],
      "matrix": [
        1,
        0,
        0,
        0,
        0,
        2.2204460492503131e-16,
        1,
        0,
        0,
        -1,
        2.2204460492503131e-16,
        0,
        0,
        0,
        0,
        1
      ],
      "name": "GLTF_SceneRootNode"
    },
    {
      "children": [
        5
      ],
      "matrix": [
        0.0093440265999796043,
        -1.0918054410769569e-10,
        -0.00356218506376708,
        0,
        0.0035621850637670089,
        -1.734325888550944e-09,
        0.0093440265999794724,
        0,
        -7.1981758415846367e-10,
        -0.0099999997764824329,
        -1.5816666289545856e-09,
        0,
        0.0043364018201828003,
        0.013545130379498005,
        0.0057458728551864624,
        1
      ],
      "name": "polySurface6_0"
    },
    {
      "mesh": 0,
      "name": ""
    }
  ],
  "scene": 0,
  "scenes": [
    {
      "name": "OSG_Scene",
      "nodes": [
        0
      ]
    }
  ]
}

