{
  "accessors": [
    {
      "bufferView": 2,
      "componentType": 5126,
      "count": 101,
      "max": [
        17.945442199707031,
        32.566307067871094,
        0.58083087205886841
      ],
      "min": [
        -22.494359970092773,
        -22.083028793334961,
        0.57572412490844727
      ],
      "type": "VEC3"
    },
    {
      "bufferView": 2,
      "byteOffset": 1212,
      "componentType": 5126,
      "count": 101,
      "max": [
        7.534303136935705e-08,
        0.00068280071718618274,
        1
      ],
      "min": [
        -0.001845718827098608,
        -0.0014556365786120296,
        -1
      ],
      "type": "VEC3"
    },
    {
      "bufferView": 1,
      "componentType": 5126,
      "count": 101,
      "max": [
        1,
        0
      ],
      "min": [
        0,
        0
      ],
      "type": "VEC2"
    },
    {
      "bufferView": 0,
      "componentType": 5125,
      "count": 183,
      "max": [
        100
      ],
      "min": [
        0
      ],
      "type": "SCALAR"
    },
    {
      "bufferView": 2,
      "byteOffset": 2424,
      "componentType": 5126,
      "count": 307,
      "max": [
        19.033428192138672,
        33.572715759277344,
        0.58083087205886841
      ],
      "min": [
        -23.922595977783203,
        -22.896688461303711,
        -0.55006593465805054
      ],
      "type": "VEC3"
    },
    {
      "bufferView": 2,
      "byteOffset": 6108,
      "componentType": 5126,
      "count": 307,
      "max": [
        0.75012391805648804,
        0.80752772092819214,
        0.78283357620239258
      ],
      "min": [
        -0.72492730617523193,
        -0.74675625562667847,
        -1
      ],
      "type": "VEC3"
    },
    {
      "bufferView": 1,
      "byteOffset": 808,
      "componentType": 5126,
      "count": 307,
      "max": [
        1,
        0
      ],
      "min": [
        0,
        0
      ],
      "type": "VEC2"
    },
    {
      "bufferView": 0,
      "byteOffset": 732,
      "componentType": 5125,
      "count": 549,
      "max": [
        306
      ],
      "min": [
        0
      ],
      "type": "SCALAR"
    },
    {
      "bufferView": 2,
      "byteOffset": 9792,
      "componentType": 5126,
      "count": 115,
      "max": [
        12.68775463104248,
        4.2903213500976562,
        0.0051065683364868164
      ],
      "min": [
        -27.752048492431641,
        -49.263473510742188,
        -2.0606586303983931e-07
      ],
      "type": "VEC3"
    },
    {
      "bufferView": 2,
      "byteOffset": 11172,
      "componentType": 5126,
      "count": 115,
      "max": [
        3.3401164500901359e-08,
        0.00068279914557933807,
        1
      ],
      "min": [
        -0.0018457280239090323,
        -0.0014556327369064093,
        -1
      ],
      "type": "VEC3"
    },
    {
      "bufferView": 1,
      "byteOffset": 3264,
      "componentType": 5126,
      "count": 115,
      "max": [
        1,
        0
      ],
      "min": [
        0,
        0
      ],
      "type": "VEC2"
    },
    {
      "bufferView": 0,
      "byteOffset": 2928,
      "componentType": 5125,
      "count": 177,
      "max": [
        114
      ],
      "min": [
        0
      ],
      "type": "SCALAR"
    },
    {
      "bufferView": 2,
      "byteOffset": 12552,
      "componentType": 5126,
      "count": 494,
      "max": [
        13.775875091552734,
        5.2970285415649414,
        0.0051065683364868164
      ],
      "min": [
        -29.18028450012207,
        -51.172676086425781,
        -5.5583977699279785
      ],
      "type": "VEC3"
    },
    {
      "bufferView": 2,
      "byteOffset": 18480,
      "componentType": 5126,
      "count": 494,
      "max": [
        0.99995380640029907,
        1,
        0.78283298015594482
      ],
      "min": [
        -0.99997091293334961,
        -1,
        -1
      ],
      "type": "VEC3"
    },
    {
      "bufferView": 1,
      "byteOffset": 4184,
      "componentType": 5126,
      "count": 494,
      "max": [
        1,
        0
      ],
      "min": [
        0,
        0
      ],
      "type": "VEC2"
    },
    {
      "bufferView": 0,
      "byteOffset": 3636,
      "componentType": 5125,
      "count": 750,
      "max": [
        493
      ],
      "min": [
        0
      ],
      "type": "SCALAR"
    },
    {
      "bufferView": 2,
      "byteOffset": 24408,
      "componentType": 5126,
      "count": 187,
      "max": [
        5.1962380409240723,
        24.048526763916016,
        0.31921026110649109
      ],
      "min": [
        -2.7548496723175049,
        -18.290473937988281,
        -0.31921026110649109
      ],
      "type": "VEC3"
    },
    {
      "bufferView": 2,
      "byteOffset": 26652,
      "componentType": 5126,
      "count": 187,
      "max": [
        1.5012795302027371e-05,
        0.004179609939455986,
        1
      ],
      "min": [
        -0.0099106756970286369,
        -0.0047622863203287125,
        -1
      ],
      "type": "VEC3"
    },
    {
      "bufferView": 1,
      "byteOffset": 8136,
      "componentType": 5126,
      "count": 187,
      "max": [
        1,
        1
      ],
      "min": [
        0,
        0
      ],
      "type": "VEC2"
    },
    {
      "bufferView": 0,
      "byteOffset": 6636,
      "componentType": 5125,
      "count": 324,
      "max": [
        186
      ],
      "min": [
        0
      ],
      "type": "SCALAR"
    },
    {
      "bufferView": 2,
      "byteOffset": 28896,
      "componentType": 5126,
      "count": 272,
      "max": [
        5.7907161712646484,
        24.59315299987793,
        0.31921026110649109
      ],
      "min": [
        -3.048647403717041,
        -18.525363922119141,
        -0.31921026110649109
      ],
      "type": "VEC3"
    },
    {
      "bufferView": 2,
      "byteOffset": 32160,
      "componentType": 5126,
      "count": 272,
      "max": [
        0.82629513740539551,
        0.80455994606018066,
        0.68919408321380615
      ],
      "min": [
        -0.83006829023361206,
        -0.81024104356765747,
        -0.68919408321380615
      ],
      "type": "VEC3"
    },
    {
      "bufferView": 1,
      "byteOffset": 9632,
      "componentType": 5126,
      "count": 272,
      "max": [
        1,
        1
      ],
      "min": [
        0,
        0
      ],
      "type": "VEC2"
    },
    {
      "bufferView": 0,
      "byteOffset": 7932,
      "componentType": 5125,
      "count": 504,
      "max": [
        271
      ],
      "min": [
        0
      ],
      "type": "SCALAR"
    },
    {
      "bufferView": 2,
      "byteOffset": 35424,
      "componentType": 5126,
      "count": 1089,
      "max": [
        0.24114611744880676,
        0.27501207590103149,
        0.17608293890953064
      ],
      "min": [
        -0.30887725949287415,
        -0.27501139044761658,
        -3.0341575145721436
      ],
      "type": "VEC3"
    },
    {
      "bufferView": 2,
      "byteOffset": 48492,
      "componentType": 5126,
      "count": 1089,
      "max": [
        1,
        1,
        0.63217753171920776
      ],
      "min": [
        -1,
        -1,
        -1
      ],
      "type": "VEC3"
    },
    {
      "bufferView": 1,
      "byteOffset": 11808,
      "componentType": 5126,
      "count": 1089,
      "max": [
        0,
        0
      ],
      "min": [
        0,
        0
      ],
      "type": "VEC2"
    },
    {
      "bufferView": 0,
      "byteOffset": 9948,
      "componentType": 5125,
      "count": 6336,
      "max": [
        1088
      ],
      "min": [
        0
      ],
      "type": "SCALAR"
    },
    {
      "bufferView": 2,
      "byteOffset": 61560,
      "componentType": 5126,
      "count": 577,
      "max": [
        0.24089139699935913,
        0.27475836873054504,
        -3.0341572761535645
      ],
      "min": [
        -0.30862468481063843,
        -0.27475780248641968,
        -3.3377425670623779
      ],
      "type": "VEC3"
    },
    {
      "bufferView": 2,
      "byteOffset": 68484,
      "componentType": 5126,
      "count": 577,
      "max": [
        0.99985301494598389,
        0.99985301494598389,
        1
      ],
      "min": [
        -0.99985301494598389,
        -0.99985301494598389,
        -0.54105132818222046
      ],
      "type": "VEC3"
    },
    {
      "bufferView": 1,
      "byteOffset": 20520,
      "componentType": 5126,
      "count": 577,
      "max": [
        0,
        0
      ],
      "min": [
        0,
        0
      ],
      "type": "VEC2"
    },
    {
      "bufferView": 0,
      "byteOffset": 35292,
      "componentType": 5125,
      "count": 3264,
      "max": [
        576
      ],
      "min": [
        0
      ],
      "type": "SCALAR"
    },
    {
      "bufferView": 2,
      "byteOffset": 75408,
      "componentType": 5126,
      "count": 12140,
      "max": [
        0.95912939310073853,
        1.0195130109786987,
        -2.3301198837089032e-07
      ],
      "min": [
        -0.97275352478027344,
        -0.86457806825637817,
        -0.10000023245811462
      ],
      "type": "VEC3"
    },
    {
      "bufferView": 2,
      "byteOffset": 221088,
      "componentType": 5126,
      "count": 12140,
      "max": [
        0.99994051456451416,
        0.99994033575057983,
        1
      ],
      "min": [
        -0.99994045495986938,
        -0.99994039535522461,
        -1
      ],
      "type": "VEC3"
    },
    {
      "bufferView": 1,
      "byteOffset": 25136,
      "componentType": 5126,
      "count": 12140,
      "max": [
        0,
        0
      ],
      "min": [
        0,
        0
      ],
      "type": "VEC2"
    },
    {
      "bufferView": 0,
      "byteOffset": 48348,
      "componentType": 5125,
      "count": 19200,
      "max": [
        12139
      ],
      "min": [
        0
      ],
      "type": "SCALAR"
    },
    {
      "bufferView": 2,
      "byteOffset": 366768,
      "componentType": 5126,
      "count": 12140,
      "max": [
        0.95912939310073853,
        1.0195130109786987,
        -2.3301198837089032e-07
      ],
      "min": [
        -0.97275352478027344,
        -0.86457806825637817,
        -0.10000023245811462
      ],
      "type": "VEC3"
    },
    {
      "bufferView": 2,
      "byteOffset": 512448,
      "componentType": 5126,
      "count": 12140,
      "max": [
        0.99994051456451416,
        0.99994033575057983,
        1
      ],
      "min": [
        -0.99994045495986938,
        -0.99994039535522461,
        -1
      ],
      "type": "VEC3"
    },
    {
      "bufferView": 1,
      "byteOffset": 122256,
      "componentType": 5126,
      "count": 12140,
      "max": [
        0,
        0
      ],
      "min": [
        0,
        0
      ],
      "type": "VEC2"
    },
    {
      "bufferView": 0,
      "byteOffset": 125148,
      "componentType": 5125,
      "count": 19200,
      "max": [
        12139
      ],
      "min": [
        0
      ],
      "type": "SCALAR"
    }
  ],
  "asset": {
    "extras": {
      "author": "Astrien (https://sketchfab.com/Astrien)",
      "license": "CC-BY-NC-4.0 (http://creativecommons.org/licenses/by-nc/4.0/)",
      "source": "https://sketchfab.com/3d-models/kiritos-elucidator-141e0934e65743f6b01aa9c311d7b977",
      "title": "Kirito's Elucidator"
    },
    "generator": "Sketchfab-9.94.0",
    "version": "2.0"
  },
  "bufferViews": [
    {
      "buffer": 0,
      "byteLength": 201948,
      "byteOffset": 0,
      "name": "floatBufferViews",
      "target": 34963
    },
    {
      "buffer": 0,
      "byteLength": 219376,
      "byteOffset": 201948,
      "byteStride": 8,
      "name": "floatBufferViews",
      "target": 34962
    },
    {
      "buffer": 0,
      "byteLength": 658128,
      "byteOffset": 421324,
      "byteStride": 12,
      "name": "floatBufferViews",
      "target": 34962
    }
  ],
  "buffers": [
    {
      "byteLength": 1079452,
      "uri": "scene.bin"
    }
  ],
  "materials": [
    {
      "doubleSided": true,
      "emissiveFactor": [
        0,
        0,
        0
      ],
      "name": "Sword_Black",
      "pbrMetallicRoughness": {
        "baseColorFactor": [
          0.0071934800000000004,
          0.0071934800000000004,
          0.0071934800000000004,
          1
        ],
        "metallicFactor": 1,
        "roughnessFactor": 0.99802998440000001
      }
    },
    {
      "doubleSided": true,
      "emissiveFactor": [
        0,
        0,
        0
      ],
      "name": "White",
      "pbrMetallicRoughness": {
        "baseColorFactor": [
          0.80000000000000004,
          0.80000000000000004,
          0.80000000000000004,
          1
        ],
        "metallicFactor": 0.80000000000000004,
        "roughnessFactor": 0.82111456179999998
      }
    },
    {
      "doubleSided": true,
      "emissiveFactor": [
        0,
        0,
        0
      ],
      "name": "Grip",
      "pbrMetallicRoughness": {
        "baseColorFactor": [
          0.0122168,
          0.0122168,
          0.0122168,
          1
        ],
        "metallicFactor": 0.5,
        "roughnessFactor": 0.99755663999999999
      }
    },
    {
      "doubleSided": true,
      "emissiveFactor": [
        0,
        0,
        0
      ],
      "name": "Grip_White",
      "pbrMetallicRoughness": {
        "baseColorFactor": [
          0.80000000000000004,
          0.80000000000000004,
          0.80000000000000004,
          1
        ],
        "metallicFactor": 0.75,
        "roughnessFactor": 0.82111456179999998
      }
    }
  ],
  "meshes": [
    {
      "name": "Plane.002_Sword_Black_0",
      "primitives": [
        {
          "attributes": {
            "NORMAL": 1,
            "POSITION": 0,
            "TEXCOORD_0": 2
          },
          "indices": 3,
          "material": 0,
          "mode": 4
        }
      ]
    },
    {
      "name": "Plane.002_White_0",
      "primitives": [
        {
          "attributes": {
            "NORMAL": 5,
            "POSITION": 4,
            "TEXCOORD_0": 6
          },
          "indices": 7,
          "material": 1,
          "mode": 4
        }
      ]
    },
    {
      "name": "Plane.001_Sword_Black_0",
      "primitives": [
        {
          "attributes": {
            "NORMAL": 9,
            "POSITION": 8,
            "TEXCOORD_0": 10
          },
          "indices": 11,
          "material": 0,
          "mode": 4
        }
      ]
    },
    {
      "name": "Plane.001_White_0",
      "primitives": [
        {
          "attributes": {
            "NORMAL": 13,
            "POSITION": 12,
            "TEXCOORD_0": 14
          },
          "indices": 15,
          "material": 1,
          "mode": 4
        }
      ]
    },
    {
      "name": "Plane_Sword_Black_0",
      "primitives": [
        {
          "attributes": {
            "NORMAL": 17,
            "POSITION": 16,
            "TEXCOORD_0": 18
          },
          "indices": 19,
          "material": 0,
          "mode": 4
        }
      ]
    },
    {
      "name": "Plane_White_0",
      "primitives": [
        {
          "attributes": {
            "NORMAL": 21,
            "POSITION": 20,
            "TEXCOORD_0": 22
          },
          "indices": 23,
          "material": 1,
          "mode": 4
        }
      ]
    },
    {
      "name": "Circle_Grip_0",
      "primitives": [
        {
          "attributes": {
            "NORMAL": 25,
            "POSITION": 24,
            "TEXCOORD_0": 26
          },
          "indices": 27,
          "material": 2,
          "mode": 4
        }
      ]
    },
    {
      "name": "Circle_Grip White_0",
      "primitives": [
        {
          "attributes": {
            "NORMAL": 29,
            "POSITION": 28,
            "TEXCOORD_0": 30
          },
          "indices": 31,
          "material": 3,
          "mode": 4
        }
      ]
    },
    {
      "name": "Circle.001_White_0",
      "primitives": [
        {
          "attributes": {
            "NORMAL": 33,
            "POSITION": 32,
            "TEXCOORD_0": 34
          },
          "indices": 35,
          "material": 1,
          "mode": 4
        }
      ]
    },
    {
      "name": "Circle.002_White_0",
      "primitives": [
        {
          "attributes": {
            "NORMAL": 37,
            "POSITION": 36,
            "TEXCOORD_0": 38
          },
          "indices": 39,
          "material": 1,
          "mode": 4
        }
      ]
    }
  ],
  "nodes": [
    {
      "children": [
        1
      ],
      "name": "RootNode (gltf orientation matrix)",
      "rotation": [
        -0.70710678118654746,
        -0,
        -0,
        0.70710678118654757
      ]
    },
    {
      "children": [
        2
      ],
      "matrix": [
        0.093480855226516724,
        0.99488794803619385,
        -0.038200713694095612,
        0,
        -0.99445265531539917,
        0.091444104909896851,
        -0.051979325711727142,
        0,
        -0.048220373690128326,
        0.042847871780395508,
        0.99791723489761353,
        0,
        -1368.9849853515625,
        2030.48974609375,
        -794.57293701171875,
        1
      ],
      "name": "RootNode (model correction matrix)"
    },
    {
      "children": [
        3
      ],
      "matrix": [
        1,
        0,
        0,
        0,
        0,
        0,
        1,
        0,
        0,
        -1,
        0,
        0,
        0,
        0,
        0,
        1
      ],
      "name": "34e8d20e123146749f8bdd00966ff0e0.fbx"
    },
    {
      "children": [
        4,
        7,
        10,
        13,
        16,
        18
      ],
      "name": "RootNode"
    },
    {
      "children": [
        5,
        6
      ],
      "matrix": [
        -12.672747336959628,
        0.37940018275953258,
        -10.482055360549532,
        0,
        10.480456519596849,
        1.1183258854117537,
        -12.630336308068443,
        0,
        0.28011378218296923,
        -10.909568111366466,
        -0.73353011961976744,
        0,
        -4210.78125,
        2205.579833984375,
        386.159912109375,
        1
      ],
      "name": "Plane.002"
    },
    {
      "mesh": 0,
      "name": "Plane.002_Sword_Black_0"
    },
    {
      "mesh": 1,
      "name": "Plane.002_White_0"
    },
    {
      "children": [
        8,
        9
      ],
      "matrix": [
        -12.672745888369134,
        0.37939706801311635,
        -10.482057224625649,
        -0,
        10.480458319253945,
        1.1183200221387724,
        -12.630335333890326,
        -0,
        -0.28011298737596507,
        10.909568424961746,
        0.73352575911367379,
        -0,
        -3982.79736328125,
        2305.99072265625,
        -21.610950469970703,
        1
      ],
      "name": "Plane.001"
    },
    {
      "mesh": 2,
      "name": "Plane.001_Sword_Black_0"
    },
    {
      "mesh": 3,
      "name": "Plane.001_White_0"
    },
    {
      "children": [
        11,
        12
      ],
      "matrix": [
        93.83260330050922,
        -2.8091592528197946,
        77.612132686671828,
        0,
        77.600284447013379,
        8.2803650901825776,
        -93.518572303836464,
        0,
        -1.1214844535893285,
        43.678369125629359,
        2.9367998627077823,
        0,
        -3066.57080078125,
        2367.925048828125,
        -1141.51171875,
        1
      ],
      "name": "Plane"
    },
    {
      "mesh": 4,
      "name": "Plane_Sword_Black_0"
    },
    {
      "mesh": 5,
      "name": "Plane_White_0"
    },
    {
      "children": [
        14,
        15
      ],
      "matrix": [
        180.93247491491564,
        -5.4167544096180098,
        149.65539436473483,
        0,
        -5.5898991621510676,
        217.70049434279127,
        14.637791119652054,
        0,
        -217.12270245614559,
        -23.16871073381596,
        261.66145808373363,
        0,
        -5231.39111328125,
        2126.663330078125,
        1503.389892578125,
        1
      ],
      "name": "Circle"
    },
    {
      "mesh": 6,
      "name": "Circle_Grip_0"
    },
    {
      "mesh": 7,
      "name": "Circle_Grip White_0"
    },
    {
      "children": [
        17
      ],
      "matrix": [
        47.645750305850484,
        -1.4264166959929971,
        39.409422852667944,
        0,
        39.403406700053111,
        4.2045472932761907,
        -47.486294010664373,
        0,
        -1.0531431586004889,
        41.016762813353232,
        2.757837679325148,
        0,
        -4460.9990234375,
        2257.0615234375,
        558.67889404296875,
        1
      ],
      "name": "Circle.001"
    },
    {
      "mesh": 8,
      "name": "Circle.001_White_0"
    },
    {
      "children": [
        19
      ],
      "matrix": [
        47.645750305850484,
        -1.4264166959929971,
        39.409422852667944,
        0,
        39.403406700053111,
        4.2045472932761907,
        -47.486294010664373,
        0,
        -1.0531431586004889,
        41.016762813353232,
        2.757837679325148,
        0,
        -4459.14208984375,
        2184.69384765625,
        553.8109130859375,
        1
      ],
      "name": "Circle.002"
    },
    {
      "mesh": 9,
      "name": "Circle.002_White_0"
    }
  ],
  "scene": 0,
  "scenes": [
    {
      "name": "OSG_Scene",
      "nodes": [
        0
      ]
    }
  ]
}

